<svg xmlns="http://www.w3.org/2000/svg" width="800" height="450"><path fill="#63107d" stroke="#63107d" stroke-width="1.51" d="m773 254 74 89 22-67Z"/><path fill="#63107d" stroke="#63107d" stroke-width="1.51" d="m773 254-1 84 75 5Z"/><path fill="#661181" stroke="#661181" stroke-width="1.51" d="m830 232-57 22 96 22Z"/><path fill="#5f0e7a" stroke="#5f0e7a" stroke-width="1.51" d="m772 338 60 49 15-44Z"/><path fill="#761792" stroke="#761792" stroke-width="1.51" d="m736 28 33 114 38-114Z"/><path fill="#570b70" stroke="#570b70" stroke-width="1.51" d="m748 442-8 100 71 8Z"/><path fill="#570c71" stroke="#570c71" stroke-width="1.51" d="m748 442 63 108 14-100Z"/><path fill="#5c0d76" stroke="#5c0d76" stroke-width="1.51" d="m749 406-1 36 77 8Z"/><path fill="#72158e" stroke="#72158e" stroke-width="1.51" d="m807 28-38 114 57-20Z"/><path fill="#6d1387" stroke="#6d1387" stroke-width="1.51" d="m729 174 44 80 56-84Z"/><path fill="#70148b" stroke="#70148b" stroke-width="1.51" d="m769 142-40 32 100-4Z"/><path fill="#6f148a" stroke="#6f148a" stroke-width="1.51" d="m826 122-57 20 60 28Z"/><path fill="#6a1284" stroke="#6a1284" stroke-width="1.51" d="m829 170-56 84 57-22Z"/><path fill="#5c0d76" stroke="#5c0d76" stroke-width="1.51" d="m749 406 76 44 7-63Z"/><path fill="#5f0e79" stroke="#5f0e79" stroke-width="1.51" d="m772 338-23 68 83-19Z"/><path fill="#7b1996" stroke="#7b1996" stroke-width="1.51" d="M799-19 746-6l61 34Z"/><path fill="#771793" stroke="#771793" stroke-width="1.51" d="m736 28-44 43 77 71Z"/><path fill="#7b1896" stroke="#7b1896" stroke-width="1.51" d="m746-6-10 34h71Z"/><path fill="#5a0d74" stroke="#5a0d74" stroke-width="1.51" d="m694 453 46 89 8-100Z"/><path fill="#771792" stroke="#771792" stroke-width="1.51" d="m692 71-19 30 96 41Z"/><path fill="#64107e" stroke="#64107e" stroke-width="1.51" d="m657 310 92 96 23-68Z"/><path fill="#691183" stroke="#691183" stroke-width="1.51" d="m683 246-26 64 115 28Z"/><path fill="#6e1488" stroke="#6e1488" stroke-width="1.51" d="m729 174-37 39 81 41Z"/><path fill="#681183" stroke="#681183" stroke-width="1.51" d="m683 246 89 92 1-84Z"/><path fill="#6c1388" stroke="#6c1388" stroke-width="1.51" d="m692 213-9 33 90 8Z"/><path fill="#74168f" stroke="#74168f" stroke-width="1.51" d="m673 101 56 73 40-32Z"/><path fill="#63107d" stroke="#63107d" stroke-width="1.51" d="m657 310 36 116 56-20Z"/><path fill="#5e0e78" stroke="#5e0e78" stroke-width="1.51" d="m693 426 55 16 1-36Z"/><path fill="#5e0e78" stroke="#5e0e78" stroke-width="1.51" d="m693 426 1 27 54-11Z"/><path fill="#7e1a99" stroke="#7e1a99" stroke-width="1.51" d="m675-19 61 47 10-34Z"/><path fill="#7d1998" stroke="#7d1998" stroke-width="1.51" d="m675-19 17 90 44-43Z"/><path fill="#73168e" stroke="#73168e" stroke-width="1.51" d="m673 101 19 112 37-39Z"/><path fill="#771792" stroke="#771792" stroke-width="1.51" d="m673 101-50 9 69 103Z"/><path fill="#751690" stroke="#751690" stroke-width="1.51" d="m623 110-25 83 94 20Z"/><path fill="#7f1a9b" stroke="#7f1a9b" stroke-width="1.51" d="m675-19-67 47 84 43Z"/><path fill="#671181" stroke="#671181" stroke-width="1.51" d="m657 310-51 26 87 90Z"/><path fill="#661180" stroke="#661180" stroke-width="1.51" d="m606 336-9 81 96 9Z"/><path fill="#610f7b" stroke="#610f7b" stroke-width="1.51" d="m693 426-96-9 97 36Z"/><path fill="#610f7b" stroke="#610f7b" stroke-width="1.51" d="m597 417-7 74 104-38Z"/><path fill="#70148a" stroke="#70148a" stroke-width="1.51" d="m598 240 85 6 9-33Z"/><path fill="#73158d" stroke="#73158d" stroke-width="1.51" d="M598 193v47l94-27Z"/><path fill="#7c1998" stroke="#7c1998" stroke-width="1.51" d="m608 28 65 73 19-30Z"/><path fill="#7c1998" stroke="#7c1998" stroke-width="1.51" d="m608 28 15 82 50-9Z"/><path fill="#6e1489" stroke="#6e1489" stroke-width="1.51" d="m598 240 59 70 26-64Z"/><path fill="#821b9f" stroke="#821b9f" stroke-width="1.51" d="m590-4 18 32 67-47Z"/><path fill="#6d1488" stroke="#6d1488" stroke-width="1.51" d="m598 240 8 96 51-26Z"/><path fill="#71158c" stroke="#71158c" stroke-width="1.51" d="m566 234-5 106 37-100Z"/><path fill="#6e1488" stroke="#6e1488" stroke-width="1.51" d="m598 240-37 100 45-4Z"/><path fill="#6a1384" stroke="#6a1384" stroke-width="1.51" d="m561 340 36 77 9-81Z"/><path fill="#7b1897" stroke="#7b1897" stroke-width="1.51" d="m536 130 18 32 69-52Z"/><path fill="#801a9b" stroke="#801a9b" stroke-width="1.51" d="m608 28-69 35 84 47Z"/><path fill="#7e199a" stroke="#7e199a" stroke-width="1.51" d="m539 63-3 67 87-20Z"/><path fill="#791794" stroke="#791794" stroke-width="1.51" d="m554 162 44 31 25-83Z"/><path fill="#64107e" stroke="#64107e" stroke-width="1.51" d="m560 420 30 71 7-74Z"/><path fill="#630f7d" stroke="#630f7d" stroke-width="1.51" d="m560 420-1 75 31-4Z"/><path fill="#681283" stroke="#681283" stroke-width="1.51" d="m561 340-1 80 37-3Z"/><path fill="#74168f" stroke="#74168f" stroke-width="1.51" d="m566 234 32 6v-47Z"/><path fill="#831b9f" stroke="#831b9f" stroke-width="1.51" d="m590-4-51 67 69-35Z"/><path fill="#851ca1" stroke="#851ca1" stroke-width="1.51" d="m532-12 7 75 51-67Z"/><path fill="#761792" stroke="#761792" stroke-width="1.51" d="m554 162 12 72 32-41Z"/><path fill="#72168c" stroke="#72168c" stroke-width="1.51" d="m457 304 104 36 5-106Z"/><path fill="#671181" stroke="#671181" stroke-width="1.51" d="m477 407-23 86 105 2Z"/><path fill="#671181" stroke="#671181" stroke-width="1.51" d="m477 407 82 88 1-75Z"/><path fill="#6a1385" stroke="#6a1385" stroke-width="1.51" d="m477 407 83 13 1-80Z"/><path fill="#791894" stroke="#791894" stroke-width="1.51" d="m554 162-83 20 95 52Z"/><path fill="#781794" stroke="#781794" stroke-width="1.51" d="m471 182-13 76 108-24Z"/><path fill="#751690" stroke="#751690" stroke-width="1.51" d="m458 258-1 46 109-70Z"/><path fill="#6f148a" stroke="#6f148a" stroke-width="1.51" d="m457 304 20 103 84-67Z"/><path fill="#7c1997" stroke="#7c1997" stroke-width="1.51" d="m536 130-65 52 83-20Z"/><path fill="#8d1fa9" stroke="#8d1fa9" stroke-width="1.51" d="M457-91 446 3l86-15Z"/><path fill="#891ea5" stroke="#891ea5" stroke-width="1.51" d="m446 3 4 52 82-67Z"/><path fill="#861da2" stroke="#861da2" stroke-width="1.51" d="m532-12-82 67 89 8Z"/><path fill="#811a9d" stroke="#811a9d" stroke-width="1.51" d="m448 124 88 6 3-67Z"/><path fill="#841ca0" stroke="#841ca0" stroke-width="1.51" d="m450 55-2 69 91-61Z"/><path fill="#7f1a9a" stroke="#7f1a9a" stroke-width="1.51" d="m448 124 23 58 65-52Z"/><path fill="#8f20ac" stroke="#8f20ac" stroke-width="1.51" d="m386-15 60 18 11-94Z"/><path fill="#73158e" stroke="#73158e" stroke-width="1.51" d="m396 338 25 63 36-97Z"/><path fill="#7c1997" stroke="#7c1997" stroke-width="1.51" d="m375 205 83 53 13-76Z"/><path fill="#70158a" stroke="#70158a" stroke-width="1.51" d="m457 304-36 97 56 6Z"/><path fill="#6b1386" stroke="#6b1386" stroke-width="1.51" d="m421 401 33 92 23-86Z"/><path fill="#6b1385" stroke="#6b1385" stroke-width="1.51" d="m421 401-30 94 63-2Z"/><path fill="#7f1a9b" stroke="#7f1a9b" stroke-width="1.51" d="m448 124-73 81 96-23Z"/><path fill="#821b9e" stroke="#821b9e" stroke-width="1.51" d="m398 113-23 92 73-81Z"/><path fill="#851ca1" stroke="#851ca1" stroke-width="1.51" d="m398 113 50 11 2-69Z"/><path fill="#871da3" stroke="#871da3" stroke-width="1.51" d="m384 75 14 38 52-58Z"/><path fill="#771792" stroke="#771792" stroke-width="1.51" d="m404 282 53 22 1-46Z"/><path fill="#7b1996" stroke="#7b1996" stroke-width="1.51" d="m375 205 29 77 54-24Z"/><path fill="#761791" stroke="#761791" stroke-width="1.51" d="m404 282-8 56 61-34Z"/><path fill="#8c1fa8" stroke="#8c1fa8" stroke-width="1.51" d="m386-15-2 90 62-72Z"/><path fill="#8a1da5" stroke="#8a1da5" stroke-width="1.51" d="m446 3-62 72 66-20Z"/><path fill="#6d1388" stroke="#6d1388" stroke-width="1.51" d="m320 469 71 26 30-94Z"/><path fill="#71158c" stroke="#71158c" stroke-width="1.51" d="m321 396-1 73 101-68Z"/><path fill="#73158e" stroke="#73158e" stroke-width="1.51" d="m396 338-75 58 100 5Z"/><path fill="#8c1fa9" stroke="#8c1fa9" stroke-width="1.51" d="m341 65 43 10 2-90Z"/><path fill="#8f20ac" stroke="#8f20ac" stroke-width="1.51" d="m332-2 9 67 45-80Z"/><path fill="#851ca1" stroke="#851ca1" stroke-width="1.51" d="m317 129 58 76 23-92Z"/><path fill="#7e1a99" stroke="#7e1a99" stroke-width="1.51" d="m375 205-68 28 97 49Z"/><path fill="#7d1998" stroke="#7d1998" stroke-width="1.51" d="m307 233-23 80 120-31Z"/><path fill="#771793" stroke="#771793" stroke-width="1.51" d="m305 344 91-6 8-56Z"/><path fill="#7a1895" stroke="#7a1895" stroke-width="1.51" d="m284 313 21 31 99-62Z"/><path fill="#811b9d" stroke="#811b9d" stroke-width="1.51" d="m316 216-9 17 68-28Z"/><path fill="#761791" stroke="#761791" stroke-width="1.51" d="m305 344 16 52 75-58Z"/><path fill="#871da4" stroke="#871da4" stroke-width="1.51" d="m384 75-67 54 81-16Z"/><path fill="#8a1ea6" stroke="#8a1ea6" stroke-width="1.51" d="m341 65-24 64 67-54Z"/><path fill="#841c9f" stroke="#841c9f" stroke-width="1.51" d="m317 129-1 87 59-11Z"/><path fill="#7f1a9a" stroke="#7f1a9a" stroke-width="1.51" d="m273 269 11 44 23-80Z"/><path fill="#851ca1" stroke="#851ca1" stroke-width="1.51" d="m278 212 38 4 1-87Z"/><path fill="#73158e" stroke="#73158e" stroke-width="1.51" d="m269 426 51 43 1-73Z"/><path fill="#9321b0" stroke="#9321b0" stroke-width="1.51" d="m255-1-9 49 86-50Z"/><path fill="#9020ad" stroke="#9020ad" stroke-width="1.51" d="m332-2-86 50 95 17Z"/><path fill="#8d1fa9" stroke="#8d1fa9" stroke-width="1.51" d="m246 48 71 81 24-64Z"/><path fill="#881ea4" stroke="#881ea4" stroke-width="1.51" d="m247 141 31 71 39-83Z"/><path fill="#8c1fa8" stroke="#8c1fa8" stroke-width="1.51" d="m246 48 1 93 70-12Z"/><path fill="#72158d" stroke="#72158d" stroke-width="1.51" d="m269 426-1 47 52-4Z"/><path fill="#761791" stroke="#761791" stroke-width="1.51" d="m305 344-36 82 52-30Z"/><path fill="#821b9e" stroke="#821b9e" stroke-width="1.51" d="m278 212 29 21 9-17Z"/><path fill="#791794" stroke="#791794" stroke-width="1.51" d="m208 351 61 75 36-82Z"/><path fill="#821b9e" stroke="#821b9e" stroke-width="1.51" d="m278 212-5 57 34-36Z"/><path fill="#7c1897" stroke="#7c1897" stroke-width="1.51" d="m284 313-76 38 97-7Z"/><path fill="#781894" stroke="#781894" stroke-width="1.51" d="m208 351-2 75h63Z"/><path fill="#891da5" stroke="#891da5" stroke-width="1.51" d="m247 141-35 22 66 49Z"/><path fill="#841c9f" stroke="#841c9f" stroke-width="1.51" d="m180 242 93 27 5-57Z"/><path fill="#7e1a99" stroke="#7e1a99" stroke-width="1.51" d="m273 269-65 82 76-38Z"/><path fill="#871da3" stroke="#871da3" stroke-width="1.51" d="m212 163-32 79 98-30Z"/><path fill="#751690" stroke="#751690" stroke-width="1.51" d="m206 426 62 47 1-47Z"/><path fill="#811b9d" stroke="#811b9d" stroke-width="1.51" d="m180 242 28 109 65-82Z"/><path fill="#8f20ac" stroke="#8f20ac" stroke-width="1.51" d="m246 48-77 79 78 14Z"/><path fill="#751690" stroke="#751690" stroke-width="1.51" d="m206 426-28 43 90 4Z"/><path fill="#9522b2" stroke="#9522b2" stroke-width="1.51" d="m180 22 66 26 9-49Z"/><path fill="#9923b5" stroke="#9923b5" stroke-width="1.51" d="m186-47-6 69 75-23Z"/><path fill="#9321b0" stroke="#9321b0" stroke-width="1.51" d="m180 22-11 105 77-79Z"/><path fill="#8c1fa9" stroke="#8c1fa9" stroke-width="1.51" d="m169 127 43 36 35-22Z"/><path fill="#861ca1" stroke="#861ca1" stroke-width="1.51" d="m107 279 17 55 56-92Z"/><path fill="#8d1fa9" stroke="#8d1fa9" stroke-width="1.51" d="m169 127-77 49 88 66Z"/><path fill="#821b9e" stroke="#821b9e" stroke-width="1.51" d="m180 242-56 92 84 17Z"/><path fill="#7c1998" stroke="#7c1998" stroke-width="1.51" d="m136 381 70 45 2-75Z"/><path fill="#8b1ea7" stroke="#8b1ea7" stroke-width="1.51" d="m169 127 11 115 32-79Z"/><path fill="#801a9b" stroke="#801a9b" stroke-width="1.51" d="m124 334 12 47 72-30Z"/><path fill="#9120ad" stroke="#9120ad" stroke-width="1.51" d="m125 129-33 47 77-49Z"/><path fill="#7a1895" stroke="#7a1895" stroke-width="1.51" d="m136 381 42 88 28-43Z"/><path fill="#9421b1" stroke="#9421b1" stroke-width="1.51" d="m93 41 32 88 44-2Z"/><path fill="#7a1895" stroke="#7a1895" stroke-width="1.51" d="m136 381-28 87 70 1Z"/><path fill="#9623b2" stroke="#9623b2" stroke-width="1.51" d="m93 41 76 86 11-105Z"/><path fill="#9c24b9" stroke="#9c24b9" stroke-width="1.51" d="m124-37 56 59 6-69Z"/><path fill="#9b24b8" stroke="#9b24b8" stroke-width="1.51" d="M124-37 93 41l87-19Z"/><path fill="#8a1ea7" stroke="#8a1ea7" stroke-width="1.51" d="m92 176 15 103 73-37Z"/><path fill="#8e20ab" stroke="#8e20ab" stroke-width="1.51" d="m45 194 18 84 29-102Z"/><path fill="#8b1ea8" stroke="#8b1ea8" stroke-width="1.51" d="M92 176 63 278l44 1Z"/><path fill="#831b9f" stroke="#831b9f" stroke-width="1.51" d="m55 343 11 56 58-65Z"/><path fill="#9723b4" stroke="#9723b4" stroke-width="1.51" d="M93 41 49 97l76 32Z"/><path fill="#811a9d" stroke="#811a9d" stroke-width="1.51" d="m124 334-58 65 70-18Z"/><path fill="#7d1999" stroke="#7d1999" stroke-width="1.51" d="m66 399 42 69 28-87Z"/><path fill="#881da4" stroke="#881da4" stroke-width="1.51" d="m63 278-8 65 52-64Z"/><path fill="#851ca1" stroke="#851ca1" stroke-width="1.51" d="m107 279-52 64 69-9Z"/><path fill="#9f25bc" stroke="#9f25bc" stroke-width="1.51" d="m24-29 69 70 31-78Z"/><path fill="#9421b0" stroke="#9421b0" stroke-width="1.51" d="m49 97 43 79 33-47Z"/><path fill="#9a24b7" stroke="#9a24b7" stroke-width="1.51" d="m50 58-1 39 44-56Z"/><path fill="#7d1998" stroke="#7d1998" stroke-width="1.51" d="m66 399-40 97 82-28Z"/><path fill="#9321b0" stroke="#9321b0" stroke-width="1.51" d="m49 97-4 97 47-18Z"/><path fill="#9e25bb" stroke="#9e25bb" stroke-width="1.51" d="m24-29 26 87 43-17Z"/><path fill="#9723b4" stroke="#9723b4" stroke-width="1.51" d="m-8 99 53 95 4-97Z"/><path fill="#a026bd" stroke="#a026bd" stroke-width="1.51" d="m24-29-48 72 74 15Z"/><path fill="#8a1ea6" stroke="#8a1ea6" stroke-width="1.51" d="m6 267 49 76 8-65Z"/><path fill="#8e1faa" stroke="#8e1faa" stroke-width="1.51" d="M45 194 6 267l57 11Z"/><path fill="#831c9f" stroke="#831c9f" stroke-width="1.51" d="m55 343-63 75 74-19Z"/><path fill="#801a9b" stroke="#801a9b" stroke-width="1.51" d="m-8 418 34 78 40-97Z"/><path fill="#9722b3" stroke="#9722b3" stroke-width="1.51" d="m-8 99-34 75 87 20Z"/><path fill="#9a24b7" stroke="#9a24b7" stroke-width="1.51" d="m-8 99 57-2 1-39Z"/><path fill="#8a1ea7" stroke="#8a1ea7" stroke-width="1.51" d="m6 267-51 59 100 17Z"/><path fill="#871da3" stroke="#871da3" stroke-width="1.51" d="m-45 326 37 92 63-75Z"/><path fill="#9d25ba" stroke="#9d25ba" stroke-width="1.51" d="m-24 43 16 56 58-41Z"/><path fill="#9221af" stroke="#9221af" stroke-width="1.51" d="m-42 174 48 93 39-73Z"/><path fill="#801b9b" stroke="#801b9b" stroke-width="1.51" d="m-8 418-36 62 70 16Z"/><path fill="#a428c1" stroke="#a428c1" stroke-width="1.51" d="m-31-42 7 85 48-72Z"/><path fill="#9321b0" stroke="#9321b0" stroke-width="1.51" d="m-42 174-72 85 120 8Z"/><path fill="#9120ad" stroke="#9120ad" stroke-width="1.51" d="m-114 259 48 44 72-36Z"/><path fill="#8e1faa" stroke="#8e1faa" stroke-width="1.51" d="m-66 303 21 23 51-59Z"/></svg>